<?xml version="1.0" encoding="utf-8"?>
<!-- Generator: Adobe Illustrator 24.3.0, SVG Export Plug-In . SVG Version: 6.00 Build 0)  -->
<svg version="1.1" id="Layer_1" xmlns="http://www.w3.org/2000/svg" xmlns:xlink="http://www.w3.org/1999/xlink" x="0px" y="0px"
	 viewBox="0 0 206 138" style="enable-background:new 0 0 206 138;" xml:space="preserve">
<g>
	<polygon points="23,69 23,46 23,23 46,23 69,23 69,0 46,0 23,0 0,0 0,23 0,46 0,69 0,92 0,115 0,138 23,138 23,115 23,92 46,92 
		69,92 69,69 46,69 	"/>
	<polygon points="69,46 69,69 92,69 92,46 92,23 69,23 	"/>
	<polygon points="183,23 183,0 160,0 137,0 137,23 160,23 	"/>
	<polygon points="183,23 183,46 183,69 160,69 137,69 137,46 137,23 114,23 114,46 114,69 114,92 114,115 114,138 137,138 137,115 
		137,92 160,92 183,92 183,115 183,138 206,138 206,115 206,92 206,69 206,46 206,23 	"/>
</g>
</svg>
